# xmcd
#
# Track frame offsets:
#	150
#	18187
#	34305
#	47155
#	63550
#	78487
#	94562
#	111137
#	125762
#	140687
#
# Disc length: 2079
#
# Revision: 2
# Processed by: cddbd v1.5.1PL0 Copyright (c) Steve Scherf et al.
# Submitted via: ExactAudioCopy v0.90a11
# Normalized: r0:TDELIM( - ),TSWAP
#
DISCID=88081d0a
DTITLE=Double Barrel Country - Vince Gill and Keith Whitley
DYEAR=1900
DGENRE=
TTITLE0=Vince Gill - I Never Knew Lonely
TTITLE1=Vince Gill - Cinderella
TTITLE2=Vince Gill - Everybody's Sweetheart
TTITLE3=Vince Gill - Oklahoma Borderline
TTITLE4=Vince Gill - Oh Carolina
TTITLE5=Keith Whitley - I'm No Stranger To The Rain
TTITLE6=Keith Whitley - When You Say Nothing At All
TTITLE7=Keith Whitley - I Wonder Do You Think Of Me
TTITLE8=Keith Whitley and Earl Thomas Conley - Brotherly Love
TTITLE9=Keith Whitley - Turn Me To Love
EXTD=
EXTT0=
EXTT1=
EXTT2=
EXTT3=
EXTT4=
EXTT5=
EXTT6=
EXTT7=
EXTT8=
EXTT9=
PLAYORDER=
